<?xml version="1.0" encoding="UTF-8" standalone="no"?>
<!-- Created with Inkscape (http://www.inkscape.org/) -->

<svg
   width="250"
   height="250"
   viewBox="0 0 250 250"
   version="1.1"
   id="Logo"
   xml:space="preserve"
   xmlns="http://www.w3.org/2000/svg"
   xmlns:svg="http://www.w3.org/2000/svg">
   <g id="logo">
   <path id="Flower" style="display:inline;fill:#cc0000;fill-opacity:1;stroke-width:1.0"
      d="M 139.246 226.287 C 127.608 225.661 127.435 216.871 124.985 215.625 C 122.534 216.871 122.358 225.66 110.72 226.283 C 93.7112 229.475 75.278 227.918 57.5591 228.739 C 52.8681 211.634 45.6962 194.582 43.4816 177.418 C 40.4812 166.157 48.7866 163.275 49.2148 160.56 C 47.273 158.614 38.8595 161.163 34.6709 150.287 C 26.3786 135.097 22.1633 117.085 15.9075 100.487 C 30.7257 90.7398 44.727 78.6496 60.3662 71.2395 C 70.1492 64.906 75.4559 71.9146 78.1707 71.4827 C 79.421 69.0347 74.3975 61.8204 83.4463 54.4761 C 95.3304 41.8958 111.158 32.3207 125.011 21.242 C 138.86 32.3229 154.685 41.9028 166.566 54.4868 C 175.612 61.8338 170.586 69.0466 171.836 71.495 C 174.551 71.9277 179.859 64.9207 189.641 71.2571 C 205.278 78.672 219.275 90.7665 234.092 100.518 C 227.833 117.113 223.613 135.124 215.316 150.311 C 211.124 161.186 202.711 158.635 200.769 160.58 C 201.196 163.295 209.5 166.179 206.497 177.439 C 204.277 194.602 197.1 211.652 192.405 228.758 C 174.687 227.933 156.254 229.485 139.246 226.287 Z"/>
   <path id="H" style="display:inline;fill:#ffffff;stroke-width:1.106975"
      d="M 164.455 170.338 L 141.304 147.232 L 148.585 139.964 L 144.735 136.121 L 125.164 155.658 L 129.01 159.504 L 136.547 151.977 L 159.703 175.084 L 125.002 209.724 L 101.848 186.616 L 105.798 182.677 L 78.2014 155.126 L 74.2473 159.07 L 51.1 135.96 L 85.8028 101.319 L 108.951 124.427 L 101.41 131.952 L 106.149 136.682 L 125.726 117.144 L 120.989 112.414 L 113.703 119.686 L 90.5529 96.5766 L 125.003 62.194 L 148.148 85.3012 L 144.203 89.2447 L 171.799 116.793 L 175.75 112.849 L 198.899 135.96 Z"/>
   </g>
</svg>
